<?xml version="1.0" encoding="UTF-8" standalone="no"?>
<!-- Svg Vector Icons : http://www.onlinewebfonts.com/icon -->

<svg
   version="1.1"
   x="0px"
   y="0px"
   viewBox="0 0 1000 1000"
   enable-background="new 0 0 1000 1000"
   xml:space="preserve"
   id="svg5650"
   sodipodi:docname="sms-icon.svg"
   inkscape:version="1.2-alpha1 (b6a15bbbed, 2022-02-23)"
   xmlns:inkscape="http://www.inkscape.org/namespaces/inkscape"
   xmlns:sodipodi="http://sodipodi.sourceforge.net/DTD/sodipodi-0.dtd"
   xmlns="http://www.w3.org/2000/svg"
   xmlns:svg="http://www.w3.org/2000/svg"><defs
   id="defs5654" /><sodipodi:namedview
   id="namedview5652"
   pagecolor="#ffffff"
   bordercolor="#000000"
   borderopacity="0.25"
   inkscape:pageshadow="2"
   inkscape:pageopacity="0.0"
   inkscape:pagecheckerboard="0"
   inkscape:deskcolor="#d1d1d1"
   showgrid="false"
   inkscape:zoom="0.72619866"
   inkscape:cx="-88.818671"
   inkscape:cy="605.89481"
   inkscape:window-width="2560"
   inkscape:window-height="1369"
   inkscape:window-x="-8"
   inkscape:window-y="-8"
   inkscape:window-maximized="1"
   inkscape:current-layer="svg5650" />
<metadata
   id="metadata5644"> Svg Vector Icons : http://www.onlinewebfonts.com/icon </metadata>
<path
   d="M 716.36085,457.53666 V 370.5879 H 629.4121 v 86.94876 z m -173.89751,0 V 370.5879 h -84.92668 v 86.94876 z m -171.96335,0 V 370.5879 h -86.94876 v 86.94876 z M 845.86086,69.212447 c 22.94603,0 42.81501,8.439919 59.69485,25.319758 16.87984,16.879835 25.23184,36.748815 25.23184,59.694845 v 517.73631 c 0,22.94603 -8.43992,43.16667 -25.31976,60.66192 -16.87983,17.49525 -36.74881,26.28683 -59.69484,26.28683 H 241.08789 L 69.212447,930.78755 V 154.13914 c 0,-22.94603 8.439919,-42.81501 25.319758,-59.694851 C 111.41204,77.564451 131.28102,69.212447 154.13914,69.212447 Z"
   id="path5646"
   style="fill:#8096c0;fill-opacity:1;stroke-width:0.879158" />
</svg>
